<svg width="176" height="48" viewBox="0 0 176 48" fill="none" xmlns="http://www.w3.org/2000/svg">
<path d="M15.96 37.795C12.992 37.795 10.183 37.4947 7.533 36.894C4.883 36.258 2.74533 35.3747 1.12 34.244C0.519333 33.8553 0.219 33.449 0.219 33.025C0.219 32.7423 0.325 32.442 0.537 32.124L3.134 27.99C3.41667 27.566 3.69933 27.354 3.982 27.354C4.15867 27.354 4.459 27.4777 4.883 27.725C6.19033 28.467 7.67433 29.0677 9.335 29.527C10.9957 29.9863 12.6387 30.216 14.264 30.216C15.9247 30.216 17.1437 29.9687 17.921 29.474C18.7337 28.9793 19.14 28.1843 19.14 27.089C19.14 26.029 18.6983 25.1987 17.815 24.598C16.967 23.9973 15.3593 23.2377 12.992 22.319C9.42333 20.9763 6.632 19.4747 4.618 17.814C2.63933 16.118 1.65 13.8213 1.65 10.924C1.65 7.426 2.90433 4.75833 5.413 2.921C7.92167 1.08366 11.2607 0.164997 15.43 0.164997C18.3273 0.164997 20.8007 0.429998 22.85 0.96C24.9347 1.45467 26.7013 2.232 28.15 3.292C28.7507 3.75133 29.051 4.17533 29.051 4.564C29.051 4.81133 28.945 5.094 28.733 5.412L26.136 9.546C25.818 9.97 25.5353 10.182 25.288 10.182C25.1113 10.182 24.811 10.0583 24.387 9.811C22.3377 8.46833 19.8997 7.797 17.073 7.797C15.5537 7.797 14.3877 8.04433 13.575 8.539C12.7623 9.03367 12.356 9.84633 12.356 10.977C12.356 11.7543 12.568 12.3903 12.992 12.885C13.416 13.3797 13.9813 13.8213 14.688 14.21C15.43 14.5633 16.5607 15.0227 18.08 15.588L19.087 15.959C21.7017 16.9837 23.751 17.973 25.235 18.927C26.7543 19.8457 27.9027 20.994 28.68 22.372C29.4573 23.7147 29.846 25.4107 29.846 27.46C29.846 30.6047 28.6623 33.1133 26.295 34.986C23.963 36.8587 20.518 37.795 15.96 37.795ZM36.1248 47.706C35.1002 47.706 34.3758 47.494 33.9518 47.07C33.5632 46.646 33.3688 45.9747 33.3688 45.056V14.687C34.9588 13.5563 36.9552 12.62 39.3578 11.878C41.7605 11.136 44.2692 10.765 46.8838 10.765C57.5545 10.765 62.8898 15.2877 62.8898 24.333C62.8898 28.4317 61.7592 31.7 59.4978 34.138C57.2365 36.576 54.0388 37.795 49.9048 37.795C48.7388 37.795 47.6082 37.6537 46.5128 37.371C45.4528 37.0883 44.5695 36.6997 43.8628 36.205V45.056C43.8628 45.9747 43.6508 46.646 43.2268 47.07C42.8028 47.494 42.0785 47.706 41.0538 47.706H36.1248ZM47.6258 30.64C49.1452 30.64 50.2758 30.0747 51.0178 28.944C51.7952 27.778 52.1838 26.2233 52.1838 24.28C52.1838 21.9833 51.7245 20.3757 50.8058 19.457C49.9225 18.503 48.5445 18.026 46.6718 18.026C45.4705 18.026 44.5165 18.185 43.8098 18.503V26.93C43.8098 28.1313 44.1455 29.05 44.8168 29.686C45.4882 30.322 46.4245 30.64 47.6258 30.64ZM79.3016 37.795C74.461 37.795 70.698 36.5937 68.0126 34.191C65.3273 31.753 63.9846 28.4493 63.9846 24.28C63.9846 20.1107 65.3273 16.8247 68.0126 14.422C70.698 11.984 74.461 10.765 79.3016 10.765C84.1423 10.765 87.9053 11.984 90.5906 14.422C93.3113 16.8247 94.6716 20.1107 94.6716 24.28C94.6716 28.4493 93.3113 31.753 90.5906 34.191C87.9053 36.5937 84.1423 37.795 79.3016 37.795ZM79.3016 30.216C82.411 30.216 83.9656 28.2373 83.9656 24.28C83.9656 20.3933 82.411 18.45 79.3016 18.45C76.1923 18.45 74.6376 20.3933 74.6376 24.28C74.6376 26.2587 75.044 27.7427 75.8566 28.732C76.6693 29.7213 77.8176 30.216 79.3016 30.216ZM100.979 37C99.954 37 99.2296 36.788 98.8056 36.364C98.3816 35.94 98.1696 35.2687 98.1696 34.35V13.203C98.1696 12.567 98.2756 12.143 98.4876 11.931C98.735 11.6837 99.2296 11.56 99.9716 11.56H105.431C105.855 11.56 106.173 11.6307 106.385 11.772C106.632 11.878 106.773 12.09 106.809 12.408L107.074 13.945C109.194 11.825 111.755 10.765 114.759 10.765C115.925 10.765 116.879 10.871 117.621 11.083C118.363 11.2597 119.034 11.56 119.635 11.984C119.988 12.2313 120.165 12.514 120.165 12.832C120.165 12.938 120.129 13.1323 120.059 13.415L118.363 18.238C118.221 18.7327 117.956 18.98 117.568 18.98C117.391 18.98 117.179 18.9093 116.932 18.768C115.978 18.238 114.829 17.973 113.487 17.973C112.144 17.973 111.031 18.344 110.148 19.086C109.3 19.828 108.876 20.8173 108.876 22.054V34.35C108.876 35.2687 108.664 35.94 108.24 36.364C107.851 36.788 107.144 37 106.12 37H100.979ZM135.743 37.795C132.351 37.795 129.754 36.8763 127.952 35.039C126.15 33.1663 125.249 30.5693 125.249 27.248V18.874H123.076C122.087 18.874 121.416 18.6797 121.062 18.291C120.744 17.9023 120.585 17.231 120.585 16.277V14.21C120.585 13.256 120.744 12.5847 121.062 12.196C121.416 11.772 122.087 11.56 123.076 11.56H125.249V10.235C125.249 9.387 125.444 8.539 125.832 7.691C126.221 6.80767 126.786 5.74767 127.528 4.511C127.882 3.91033 128.2 3.52166 128.482 3.345C128.8 3.16833 129.348 3.08 130.125 3.08H133.252C134.242 3.08 134.931 3.292 135.319 3.716C135.743 4.14 135.955 4.81133 135.955 5.73V11.56H140.195C141.185 11.56 141.838 11.772 142.156 12.196C142.51 12.5847 142.686 13.256 142.686 14.21V16.277C142.686 17.231 142.51 17.9023 142.156 18.291C141.838 18.6797 141.185 18.874 140.195 18.874H135.955V27.036C135.955 28.1313 136.167 28.944 136.591 29.474C137.015 29.9687 137.704 30.216 138.658 30.216C139.259 30.216 139.736 30.1453 140.089 30.004C140.478 29.8627 140.937 29.6153 141.467 29.262C141.75 29.0853 142.015 28.997 142.262 28.997C142.616 28.997 142.916 29.209 143.163 29.633L145.389 33.449C145.637 33.873 145.76 34.2087 145.76 34.456C145.76 34.774 145.548 35.0743 145.124 35.357C143.923 36.1697 142.563 36.7703 141.043 37.159C139.559 37.583 137.793 37.795 135.743 37.795ZM153.259 45.268C150.291 45.268 147.729 44.4023 145.574 42.671C145.185 42.353 144.991 42.0527 144.991 41.77C144.991 41.558 145.114 41.24 145.362 40.816L147.482 37.053C147.729 36.5937 148.029 36.364 148.383 36.364C148.559 36.364 148.895 36.4877 149.39 36.735C149.99 37.0883 150.503 37.3533 150.927 37.53C151.386 37.7067 151.934 37.795 152.57 37.795C153.347 37.795 153.948 37.583 154.372 37.159C154.796 36.7703 155.149 36.152 155.432 35.304L145.15 13.574C144.973 13.2207 144.885 12.885 144.885 12.567C144.885 12.249 144.973 12.0017 145.15 11.825C145.362 11.6483 145.644 11.56 145.998 11.56H153.789C154.743 11.56 155.379 12.0017 155.697 12.885L160.255 24.969L164.813 12.885C164.989 12.4257 165.219 12.09 165.502 11.878C165.784 11.666 166.191 11.56 166.721 11.56H174.512C175.218 11.56 175.572 11.8957 175.572 12.567C175.572 12.8143 175.483 13.15 175.307 13.574L165.449 34.509C164.212 37.1237 163.064 39.1907 162.004 40.71C160.944 42.2293 159.707 43.36 158.294 44.102C156.916 44.8793 155.237 45.268 153.259 45.268Z" fill="#F1802D"/>
</svg>
