<svg width="30" height="38" viewBox="0 0 30 38" fill="none" xmlns="http://www.w3.org/2000/svg">
<path d="M15.96 37.795C12.992 37.795 10.183 37.4947 7.533 36.894C4.883 36.258 2.74533 35.3747 1.12 34.244C0.519333 33.8553 0.219 33.449 0.219 33.025C0.219 32.7423 0.325 32.442 0.537 32.124L3.134 27.99C3.41667 27.566 3.69933 27.354 3.982 27.354C4.15867 27.354 4.459 27.4777 4.883 27.725C6.19033 28.467 7.67433 29.0677 9.335 29.527C10.9957 29.9863 12.6387 30.216 14.264 30.216C15.9247 30.216 17.1437 29.9687 17.921 29.474C18.7337 28.9793 19.14 28.1843 19.14 27.089C19.14 26.029 18.6983 25.1987 17.815 24.598C16.967 23.9973 15.3593 23.2377 12.992 22.319C9.42333 20.9763 6.632 19.4747 4.618 17.814C2.63933 16.118 1.65 13.8213 1.65 10.924C1.65 7.426 2.90433 4.75833 5.413 2.921C7.92167 1.08366 11.2607 0.164997 15.43 0.164997C18.3273 0.164997 20.8007 0.429998 22.85 0.96C24.9347 1.45467 26.7013 2.232 28.15 3.292C28.7507 3.75133 29.051 4.17533 29.051 4.564C29.051 4.81133 28.945 5.094 28.733 5.412L26.136 9.546C25.818 9.97 25.5353 10.182 25.288 10.182C25.1113 10.182 24.811 10.0583 24.387 9.811C22.3377 8.46833 19.8997 7.797 17.073 7.797C15.5537 7.797 14.3877 8.04433 13.575 8.539C12.7623 9.03367 12.356 9.84633 12.356 10.977C12.356 11.7543 12.568 12.3903 12.992 12.885C13.416 13.3797 13.9813 13.8213 14.688 14.21C15.43 14.5633 16.5607 15.0227 18.08 15.588L19.087 15.959C21.7017 16.9837 23.751 17.973 25.235 18.927C26.7543 19.8457 27.9027 20.994 28.68 22.372C29.4573 23.7147 29.846 25.4107 29.846 27.46C29.846 30.6047 28.6623 33.1133 26.295 34.986C23.963 36.8587 20.518 37.795 15.96 37.795Z" fill="#F1802D"/>
</svg>
