<svg width="366" height="366" viewBox="0 0 366 366" fill="none" xmlns="http://www.w3.org/2000/svg">
<path d="M0 40.5652C0 29.8066 4.27382 19.4887 11.8813 11.8813C19.4887 4.27382 29.8066 0 40.5652 0H324.522C335.28 0 345.598 4.27382 353.206 11.8813C360.813 19.4887 365.087 29.8066 365.087 40.5652V324.522C365.087 335.28 360.813 345.598 353.206 353.206C345.598 360.813 335.28 365.087 324.522 365.087H40.5652C29.8066 365.087 19.4887 360.813 11.8813 353.206C4.27382 345.598 0 335.28 0 324.522V40.5652ZM324.522 40.5652H40.5652V324.522H324.522V40.5652ZM182.543 81.1304C187.923 81.1304 193.082 83.2673 196.885 87.0711C200.689 90.8748 202.826 96.0337 202.826 101.413V263.674C202.826 269.053 200.689 274.212 196.885 278.016C193.082 281.82 187.923 283.956 182.543 283.956C177.164 283.956 172.005 281.82 168.201 278.016C164.398 274.212 162.261 269.053 162.261 263.674V101.413C162.261 96.0337 164.398 90.8748 168.201 87.0711C172.005 83.2673 177.164 81.1304 182.543 81.1304ZM263.674 121.696C269.053 121.696 274.212 123.833 278.016 127.636C281.82 131.44 283.956 136.599 283.956 141.978V263.674C283.956 269.053 281.82 274.212 278.016 278.016C274.212 281.82 269.053 283.956 263.674 283.956C258.295 283.956 253.136 281.82 249.332 278.016C245.528 274.212 243.391 269.053 243.391 263.674V141.978C243.391 136.599 245.528 131.44 249.332 127.636C253.136 123.833 258.295 121.696 263.674 121.696ZM101.413 162.261C106.792 162.261 111.951 164.398 115.755 168.201C119.559 172.005 121.696 177.164 121.696 182.543V263.674C121.696 269.053 119.559 274.212 115.755 278.016C111.951 281.82 106.792 283.956 101.413 283.956C96.0337 283.956 90.8748 281.82 87.0711 278.016C83.2673 274.212 81.1304 269.053 81.1304 263.674V182.543C81.1304 177.164 83.2673 172.005 87.0711 168.201C90.8748 164.398 96.0337 162.261 101.413 162.261Z" fill="white"/>
</svg>
