<svg width="366" height="457" viewBox="0 0 366 457" fill="none" xmlns="http://www.w3.org/2000/svg">
<path d="M91.2717 22.8179C91.2717 16.7662 93.6758 10.9624 97.9549 6.68322C102.234 2.40402 108.038 0 114.09 0H250.997C257.049 0 262.853 2.40402 267.132 6.68322C271.411 10.9624 273.815 16.7662 273.815 22.8179H319.451C331.554 22.8179 343.162 27.626 351.72 36.1844C360.279 44.7427 365.087 56.3504 365.087 68.4538V410.723C365.087 422.826 360.279 434.434 351.72 442.992C343.162 451.551 331.554 456.359 319.451 456.359H45.6359C33.5325 456.359 21.9248 451.551 13.3664 442.992C4.80805 434.434 0 422.826 0 410.723V68.4538C0 56.3504 4.80805 44.7427 13.3664 36.1844C21.9248 27.626 33.5325 22.8179 45.6359 22.8179H91.2717ZM91.2717 68.4538H45.6359V410.723H319.451V68.4538H273.815V91.2717C273.815 97.3234 271.411 103.127 267.132 107.406C262.853 111.686 257.049 114.09 250.997 114.09H114.09C108.038 114.09 102.234 111.686 97.9549 107.406C93.6758 103.127 91.2717 97.3234 91.2717 91.2717V68.4538ZM228.179 45.6359H136.908V68.4538H228.179V45.6359ZM267.13 200.638C271.407 204.917 273.81 210.72 273.81 216.77C273.81 222.821 271.407 228.624 267.13 232.903L175.858 324.174C171.579 328.452 165.776 330.855 159.726 330.855C153.675 330.855 147.872 328.452 143.593 324.174L97.9574 278.538C95.778 276.434 94.0397 273.916 92.8438 271.132C91.648 268.348 91.0185 265.354 90.9922 262.324C90.9659 259.294 91.5432 256.29 92.6905 253.485C93.8378 250.681 95.5321 248.134 97.6746 245.991C99.817 243.849 102.365 242.154 105.169 241.007C107.973 239.86 110.978 239.282 114.008 239.309C117.037 239.335 120.031 239.965 122.815 241.16C125.599 242.356 128.117 244.095 130.222 246.274L159.726 275.778L234.865 200.638C239.144 196.36 244.947 193.957 250.997 193.957C257.048 193.957 262.851 196.36 267.13 200.638Z" fill="white"/>
</svg>
