<svg width="366" height="366" viewBox="0 0 366 366" fill="none" xmlns="http://www.w3.org/2000/svg">
<path d="M182.543 36.5087C143.813 36.5087 106.668 51.8945 79.2813 79.2813C51.8945 106.668 36.5087 143.813 36.5087 182.543C36.5087 221.274 51.8945 258.419 79.2813 285.806C106.668 313.192 143.813 328.578 182.543 328.578C221.274 328.578 258.419 313.192 285.806 285.806C313.192 258.419 328.578 221.274 328.578 182.543C328.578 143.813 313.192 106.668 285.806 79.2813C258.419 51.8945 221.274 36.5087 182.543 36.5087ZM0 182.543C0 81.7247 81.7247 0 182.543 0C283.362 0 365.087 81.7247 365.087 182.543C365.087 283.362 283.362 365.087 182.543 365.087C81.7247 365.087 0 283.362 0 182.543Z" fill="white"/>
<path d="M182.544 146.035C187.385 146.035 192.028 147.958 195.451 151.381C198.875 154.805 200.798 159.448 200.798 164.289V273.815C200.798 278.656 198.875 283.3 195.451 286.723C192.028 290.146 187.385 292.069 182.544 292.069C177.702 292.069 173.059 290.146 169.636 286.723C166.213 283.3 164.289 278.656 164.289 273.815V164.289C164.289 159.448 166.213 154.805 169.636 151.381C173.059 147.958 177.702 146.035 182.544 146.035ZM209.925 100.399C209.925 107.661 207.04 114.625 201.905 119.761C196.77 124.896 189.806 127.78 182.544 127.78C175.282 127.78 168.317 124.896 163.182 119.761C158.047 114.625 155.162 107.661 155.162 100.399C155.162 93.1368 158.047 86.1722 163.182 81.0372C168.317 75.9022 175.282 73.0173 182.544 73.0173C189.806 73.0173 196.77 75.9022 201.905 81.0372C207.04 86.1722 209.925 93.1368 209.925 100.399Z" fill="white"/>
</svg>
