<svg width="366" height="366" viewBox="0 0 366 366" fill="none" xmlns="http://www.w3.org/2000/svg">
<path d="M182.548 36.5688C177.708 36.5688 173.067 38.4913 169.645 41.9134C166.223 45.3354 164.301 49.9767 164.301 54.8162C164.301 85.6908 126.966 101.165 105.124 79.3225C103.441 77.5797 101.428 76.1895 99.2013 75.2332C96.975 74.2769 94.5806 73.7735 92.1577 73.7524C89.7348 73.7314 87.332 74.1931 85.0895 75.1106C82.847 76.0281 80.8096 77.383 79.0963 79.0963C77.383 80.8096 76.0281 82.847 75.1106 85.0895C74.1931 87.332 73.7314 89.7348 73.7524 92.1577C73.7735 94.5806 74.2769 96.975 75.2332 99.2013C76.1895 101.428 77.5797 103.441 79.3225 105.124C101.165 126.966 85.7091 164.301 54.8162 164.301C49.9767 164.301 45.3354 166.223 41.9134 169.645C38.4913 173.067 36.5688 177.708 36.5688 182.548C36.5688 187.388 38.4913 192.029 41.9134 195.451C45.3354 198.873 49.9767 200.795 54.8162 200.795C85.6908 200.795 101.165 238.13 79.3225 259.972C75.9986 263.413 74.1593 268.023 74.2009 272.807C74.2425 277.591 76.1615 282.168 79.5447 285.551C82.928 288.934 87.5046 290.854 92.2891 290.895C97.0735 290.937 101.683 289.097 105.124 285.774C126.966 263.931 164.301 279.387 164.301 310.28C164.301 315.119 166.223 319.761 169.645 323.183C173.067 326.605 177.708 328.527 182.548 328.527C187.388 328.527 192.029 326.605 195.451 323.183C198.873 319.761 200.795 315.119 200.795 310.28C200.795 279.405 238.13 263.931 259.972 285.774C261.655 287.516 263.668 288.906 265.895 289.863C268.121 290.819 270.515 291.322 272.938 291.344C275.361 291.365 277.764 290.903 280.006 289.985C282.249 289.068 284.286 287.713 286 286C287.713 284.286 289.068 282.249 289.985 280.006C290.903 277.764 291.365 275.361 291.344 272.938C291.322 270.515 290.819 268.121 289.863 265.895C288.906 263.668 287.516 261.655 285.774 259.972C263.931 238.13 279.387 200.795 310.28 200.795C315.119 200.795 319.761 198.873 323.183 195.451C326.605 192.029 328.527 187.388 328.527 182.548C328.527 177.708 326.605 173.067 323.183 169.645C319.761 166.223 315.119 164.301 310.28 164.301C279.405 164.301 263.931 126.966 285.774 105.124C289.097 101.683 290.937 97.0735 290.895 92.2891C290.854 87.5046 288.934 82.928 285.551 79.5447C282.168 76.1615 277.591 74.2425 272.807 74.2009C268.023 74.1593 263.413 75.9986 259.972 79.3225C238.13 101.165 200.795 85.7091 200.795 54.8162C200.795 49.9767 198.873 45.3354 195.451 41.9134C192.029 38.4913 187.388 36.5688 182.548 36.5688ZM127.952 50.747C128.961 36.957 135.151 24.0596 145.279 14.646C155.406 5.23239 168.721 0 182.548 0C196.375 0 209.69 5.23239 219.817 14.646C229.945 24.0596 236.135 36.957 237.144 50.747C247.615 41.7544 261.096 37.0489 274.888 37.5726C288.68 38.0963 301.766 43.8106 311.524 53.5713C321.282 63.3321 326.994 76.4188 327.514 90.2111C328.035 104.003 323.326 117.483 314.331 127.952C328.121 128.959 341.019 135.147 350.435 145.273C359.85 155.399 365.085 168.713 365.087 182.54C365.089 196.366 359.859 209.682 350.447 219.811C341.035 229.94 328.139 236.133 314.349 237.144C323.342 247.615 328.047 261.096 327.523 274.888C327 288.68 321.285 301.766 311.525 311.524C301.764 321.282 288.677 326.994 274.885 327.514C261.093 328.035 247.613 323.326 237.144 314.331C236.135 328.121 229.945 341.018 219.817 350.432C209.69 359.845 196.375 365.078 182.548 365.078C168.721 365.078 155.406 359.845 145.279 350.432C135.151 341.018 128.961 328.121 127.952 314.331C117.483 323.326 104.003 328.035 90.2111 327.514C76.4188 326.994 63.3321 321.282 53.5713 311.524C43.8106 301.766 38.0963 288.68 37.5726 274.888C37.0489 261.096 41.7544 247.615 50.747 237.144C36.957 236.135 24.0596 229.945 14.646 219.817C5.23239 209.69 0 196.375 0 182.548C0 168.721 5.23239 155.406 14.646 145.279C24.0596 135.151 36.957 128.961 50.747 127.952C41.727 117.485 36.9985 103.995 37.5103 90.1873C38.022 76.3797 43.7362 63.2764 53.5063 53.5063C63.2764 43.7362 76.3797 38.022 90.1873 37.5103C103.995 36.9985 117.485 41.727 127.952 50.747Z" fill="white"/>
<path d="M182.539 146.054C172.86 146.054 163.577 149.899 156.733 156.743C149.889 163.587 146.044 172.87 146.044 182.549C146.044 192.228 149.889 201.511 156.733 208.355C163.577 215.199 172.86 219.044 182.539 219.044C192.218 219.044 201.501 215.199 208.345 208.355C215.189 201.511 219.034 192.228 219.034 182.549C219.034 172.87 215.189 163.587 208.345 156.743C201.501 149.899 192.218 146.054 182.539 146.054ZM130.935 130.945C137.668 123.974 145.722 118.414 154.627 114.588C163.532 110.763 173.11 108.749 182.802 108.665C192.493 108.581 202.104 110.428 211.075 114.098C220.045 117.768 228.194 123.187 235.047 130.041C241.9 136.894 247.32 145.043 250.99 154.013C254.66 162.984 256.507 172.595 256.423 182.286C256.338 191.978 254.325 201.556 250.5 210.461C246.674 219.366 241.114 227.42 234.143 234.153C220.377 247.448 201.939 254.805 182.802 254.639C163.664 254.473 145.357 246.796 131.824 233.263C118.292 219.731 110.615 201.424 110.449 182.286C110.283 163.149 117.64 144.711 130.935 130.945Z" fill="white"/>
</svg>
