<svg width="366" height="366" viewBox="0 0 366 366" fill="none" xmlns="http://www.w3.org/2000/svg">
<path d="M146.035 36.5087C126.669 36.5087 108.097 44.2016 94.4037 57.895C80.7103 71.5884 73.0174 90.1607 73.0174 109.526C73.0174 128.891 80.7103 147.464 94.4037 161.157C108.097 174.851 126.669 182.543 146.035 182.543C165.4 182.543 183.972 174.851 197.666 161.157C211.359 147.464 219.052 128.891 219.052 109.526C219.052 90.1607 211.359 71.5884 197.666 57.895C183.972 44.2016 165.4 36.5087 146.035 36.5087ZM36.5087 109.526C36.5087 80.4779 48.048 52.6196 68.5881 32.0794C89.1283 11.5393 116.987 0 146.035 0C175.083 0 202.941 11.5393 223.481 32.0794C244.022 52.6196 255.561 80.4779 255.561 109.526C255.561 138.574 244.022 166.433 223.481 186.973C202.941 207.513 175.083 219.052 146.035 219.052C116.987 219.052 89.1283 207.513 68.5881 186.973C48.048 166.433 36.5087 138.574 36.5087 109.526ZM270.675 32.0729C272.371 30.3757 274.384 29.0292 276.6 28.1106C278.816 27.192 281.191 26.7191 283.59 26.7191C285.989 26.7191 288.365 27.192 290.581 28.1106C292.797 29.0292 294.81 30.3757 296.505 32.0729C306.678 42.2436 314.747 54.3185 320.252 67.608C325.758 80.8975 328.591 95.1413 328.591 109.526C328.591 123.911 325.758 138.155 320.252 151.444C314.747 164.734 306.678 176.809 296.505 186.979C294.809 188.675 292.796 190.021 290.58 190.938C288.364 191.856 285.989 192.329 283.59 192.329C281.192 192.329 278.817 191.856 276.601 190.938C274.385 190.021 272.371 188.675 270.675 186.979C268.979 185.283 267.634 183.27 266.716 181.054C265.798 178.838 265.326 176.463 265.326 174.064C265.326 171.666 265.798 169.291 266.716 167.075C267.634 164.859 268.979 162.845 270.675 161.149C284.364 147.457 292.054 128.888 292.054 109.526C292.054 90.1645 284.364 71.5956 270.675 57.9028C268.978 56.2074 267.632 54.1942 266.713 51.9782C265.795 49.7621 265.322 47.3867 265.322 44.9878C265.322 42.5889 265.795 40.2136 266.713 37.9975C267.632 35.7815 268.978 33.7682 270.675 32.0729ZM283.49 269.379C284.667 264.687 287.658 260.654 291.806 258.166C295.954 255.678 300.921 254.938 305.614 256.108C329.856 262.169 345.208 277.649 354.025 295.319C362.568 312.387 365.087 331.462 365.087 346.833C365.087 351.674 363.164 356.317 359.74 359.74C356.317 363.164 351.674 365.087 346.833 365.087C341.991 365.087 337.348 363.164 333.925 359.74C330.501 356.317 328.578 351.674 328.578 346.833C328.578 334.839 326.534 321.952 321.386 311.638C316.512 301.909 309.028 294.589 296.761 291.522C292.069 290.345 288.036 287.354 285.547 283.206C283.059 279.058 282.319 274.073 283.49 269.379ZM82.1446 292.07C59.1441 292.07 36.5087 314.212 36.5087 346.833C36.5087 351.674 34.5855 356.317 31.1621 359.74C27.7388 363.164 23.0957 365.087 18.2543 365.087C13.413 365.087 8.76993 363.164 5.34657 359.74C1.92322 356.317 0 351.674 0 346.833C0 298.787 34.5555 255.561 82.1446 255.561H209.925C257.514 255.561 292.07 298.787 292.07 346.833C292.07 351.674 290.146 356.317 286.723 359.74C283.3 363.164 278.657 365.087 273.815 365.087C268.974 365.087 264.331 363.164 260.907 359.74C257.484 356.317 255.561 351.674 255.561 346.833C255.561 314.212 232.925 292.07 209.925 292.07H82.1446Z" fill="white"/>
</svg>
